<svg xmlns="http://www.w3.org/2000/svg" width="1920" height="251" viewBox="0 0 1920 251">
  <g id="Footer" transform="translate(0 -524)">
    <rect id="Rectangle_52" data-name="Rectangle 52" width="1920" height="190" transform="translate(0 585)" fill="#4b4b4b"/>
    <path id="Rectangle_48" data-name="Rectangle 48" d="M0,0H1920a0,0,0,0,1,0,0V72a50,50,0,0,1-50,50H50A50,50,0,0,1,0,72V0A0,0,0,0,1,0,0Z" transform="translate(0 524)" fill="#141416"/>
    <g id="Group_18" data-name="Group 18" transform="translate(2637.644 37.43)" style="mix-blend-mode: difference;isolation: isolate">
      <path id="daisy" d="M67.429,29.879l-14.322,2.8,12.1-8.211A8.937,8.937,0,0,0,61.535,8.986,8.825,8.825,0,0,0,52.717,11.9L44.524,24.255l2.818-14.6a8.935,8.935,0,0,0-4.189-8.334,8.81,8.81,0,0,0-9.279,0,8.935,8.935,0,0,0-4.189,8.334l2.885,14.569L24.308,11.9a8.819,8.819,0,0,0-13.027-.546h0a8.955,8.955,0,0,0,.543,13.112L24.1,32.715,9.6,29.879A8.825,8.825,0,0,0,2.861,32.2,8.946,8.946,0,0,0,0,38.765H0a8.944,8.944,0,0,0,2.861,6.563A8.824,8.824,0,0,0,9.6,47.652l14.654-2.939-12.426,8.35a8.955,8.955,0,0,0-.543,13.112h0a8.819,8.819,0,0,0,13.027-.546L32.569,53.3,29.683,67.871A8.935,8.935,0,0,0,33.873,76.2a8.81,8.81,0,0,0,9.279,0,8.935,8.935,0,0,0,4.189-8.334L44.524,53.276l8.193,12.353A8.839,8.839,0,0,0,68.1,61.939a8.951,8.951,0,0,0-2.9-8.876L52.955,44.748l14.474,2.9a8.825,8.825,0,0,0,6.734-2.325,8.946,8.946,0,0,0,2.861-6.562h0A8.944,8.944,0,0,0,74.163,32.2a8.824,8.824,0,0,0-6.735-2.324ZM38.512,46.841a8.076,8.076,0,1,1,8.023-8.076,8.05,8.05,0,0,1-8.023,8.076Z" transform="translate(-1716.156 633.97)" fill="#fff"/>
      <rect id="Rectangle_20" data-name="Rectangle 20" width="21.166" height="22.015" transform="translate(-1689.611 663.442)" fill="#fff"/>
    </g>
  </g>
</svg>
