<svg xmlns="http://www.w3.org/2000/svg" width="217.195" height="218.595" viewBox="0 0 217.195 218.595">
  <g id="headerlogo" transform="translate(1716.156 -633.974)">
    <path id="daisy" d="M190.137,84.244l-40.387,7.9,34.106-23.155a25.2,25.2,0,0,0-10.337-43.658,24.885,24.885,0,0,0-24.867,8.224l-23.1,34.833,7.946-41.157a25.2,25.2,0,0,0-11.813-23.5,24.844,24.844,0,0,0-26.166,0A25.2,25.2,0,0,0,83.7,27.229L91.837,68.31,68.544,33.553a24.869,24.869,0,0,0-36.734-1.54h0a25.252,25.252,0,0,0,1.53,36.974L67.947,92.242l-40.89-8A24.886,24.886,0,0,0,8.068,90.8,25.225,25.225,0,0,0,0,109.3H0a25.221,25.221,0,0,0,8.067,18.505,24.882,24.882,0,0,0,18.99,6.554l41.322-8.288L33.34,149.619a25.252,25.252,0,0,0-1.53,36.974h0a24.869,24.869,0,0,0,36.734-1.54l23.295-34.759L83.7,191.375a25.2,25.2,0,0,0,11.813,23.5,24.844,24.844,0,0,0,26.166,0,25.2,25.2,0,0,0,11.813-23.5l-7.946-41.155,23.1,34.833a24.924,24.924,0,0,0,43.375-10.405,25.24,25.24,0,0,0-8.171-25.029l-34.534-23.447,40.814,8.19a24.886,24.886,0,0,0,18.989-6.556,25.225,25.225,0,0,0,8.068-18.5h0A25.221,25.221,0,0,0,209.128,90.8a24.881,24.881,0,0,0-18.99-6.554ZM108.6,132.076A22.773,22.773,0,1,1,131.223,109.3,22.7,22.7,0,0,1,108.6,132.076Z" transform="translate(-1716.156 633.97)" fill="#fff"/>
    <rect id="Rectangle_20" data-name="Rectangle 20" width="59.685" height="62.077" transform="translate(-1641.303 717.068)" fill="#fff"/>
  </g>
</svg>
