<svg id="pdfclose" xmlns="http://www.w3.org/2000/svg" width="1920" height="1080" viewBox="0 0 1920 1080">
  <g id="Group_1" data-name="Group 1">
    <g id="Group_2" data-name="Group 2">
      <rect id="Rectangle_1" data-name="Rectangle 1" width="9" height="29" fill="#003bfb"/>
      <rect id="Rectangle_2" data-name="Rectangle 2" width="9" height="29" transform="translate(29) rotate(90)" fill="#003bfb"/>
    </g>
    <g id="Group_1-2" data-name="Group 1" transform="translate(-97 1117) rotate(-90)">
      <rect id="Rectangle_3" data-name="Rectangle 3" width="9" height="29" transform="translate(37 97)" fill="#003bfb"/>
      <rect id="Rectangle_4" data-name="Rectangle 4" width="9" height="29" transform="translate(66 97) rotate(90)" fill="#003bfb"/>
    </g>
    <g id="Group_3" data-name="Group 3" transform="translate(2017 -37) rotate(90)">
      <rect id="Rectangle_3-2" data-name="Rectangle 3" width="9" height="29" transform="translate(37 97)" fill="#003bfb"/>
      <rect id="Rectangle_4-2" data-name="Rectangle 4" width="9" height="29" transform="translate(66 97) rotate(90)" fill="#003bfb"/>
    </g>
    <g id="Group_4" data-name="Group 4" transform="translate(1957 1177) rotate(180)">
      <rect id="Rectangle_3-3" data-name="Rectangle 3" width="9" height="29" transform="translate(37 97)" fill="#003bfb"/>
      <rect id="Rectangle_4-3" data-name="Rectangle 4" width="9" height="29" transform="translate(66 97) rotate(90)" fill="#003bfb"/>
    </g>
  </g>
  <g id="pdflogo" transform="translate(213 -108.586)">
    <path id="daisy" d="M301.023,132.505l-63.939,12.423,54-36.42a39.548,39.548,0,1,0-55.734-55.734l-36.578,54.79,12.58-64.736a39.551,39.551,0,1,0-78.831,0l12.879,64.617-36.877-54.67a39.545,39.545,0,0,0-58.157-2.422h0a39.545,39.545,0,0,0,2.422,58.157l54.79,36.578-64.736-12.58A39.557,39.557,0,0,0,0,171.921H0a39.551,39.551,0,0,0,42.836,39.416l65.42-13.037L52.783,235.334a39.545,39.545,0,0,0-2.422,58.157h0a39.545,39.545,0,0,0,58.157-2.422L145.4,236.4l-12.882,64.617a39.551,39.551,0,1,0,78.831,0l-12.58-64.733,36.578,54.789a39.548,39.548,0,1,0,55.734-55.734l-54.673-36.88,64.617,12.882a39.557,39.557,0,0,0,42.836-39.416h0a39.551,39.551,0,0,0-42.836-39.416ZM171.931,207.74a35.822,35.822,0,1,0-.006,0Z" transform="translate(575.071 400.166)" fill="red"/>
    <g id="Group_2-2" data-name="Group 2" transform="translate(4.071 0)">
      <rect id="Rectangle_1-2" data-name="Rectangle 1" width="22" height="109" rx="11" transform="translate(638 788)" fill="#1d1d1f"/>
      <rect id="Rectangle_2-2" data-name="Rectangle 2" width="22" height="78" rx="11" transform="translate(688 788) rotate(90)" fill="#1d1d1f"/>
      <g id="Rectangle_3-4" data-name="Rectangle 3" transform="translate(688 788)" fill="none" stroke="#1d1d1f" stroke-width="22">
        <rect width="109" height="109" rx="54.5" stroke="none"/>
        <rect x="11" y="11" width="87" height="87" rx="43.5" fill="none"/>
      </g>
      <rect id="Rectangle_4-4" data-name="Rectangle 4" width="22" height="109" rx="11" transform="translate(808 788)" fill="#1d1d1f"/>
      <rect id="Rectangle_5" data-name="Rectangle 5" width="22" height="68" rx="11" transform="translate(876 788) rotate(90)" fill="#1d1d1f"/>
      <rect id="Rectangle_6" data-name="Rectangle 6" width="22" height="68" rx="11" transform="translate(876 832) rotate(90)" fill="#1d1d1f"/>
    </g>
  </g>
</svg>
