<svg xmlns="http://www.w3.org/2000/svg" width="395.624" height="109.495" viewBox="0 0 395.624 109.495">
  <g id="pdflogo" transform="translate(-480.376 -787.505)">
    <path id="daisy" d="M95.571,42.072l-20.3,3.944L92.414,34.453a12.556,12.556,0,1,0-17.7-17.7l-11.613,17.4L67.1,13.6a12.557,12.557,0,1,0-25.028,0l4.089,20.515L34.453,16.758a12.555,12.555,0,0,0-18.464-.769h0a12.555,12.555,0,0,0,.769,18.464l17.4,11.613L13.6,42.072A12.559,12.559,0,0,0,0,54.586H0A12.557,12.557,0,0,0,13.6,67.1l20.77-4.139L16.758,74.719a12.555,12.555,0,0,0-.769,18.464h0a12.555,12.555,0,0,0,18.464-.769L46.162,75.056l-4.09,20.515a12.557,12.557,0,1,0,25.028,0L63.106,75.019l11.613,17.4a12.556,12.556,0,1,0,17.695-17.7L75.056,63.01,95.571,67.1a12.559,12.559,0,0,0,13.6-12.514h0a12.557,12.557,0,0,0-13.6-12.514ZM54.586,65.958A11.372,11.372,0,1,1,65.958,54.586,11.372,11.372,0,0,1,54.586,65.958Z" transform="translate(480.376 787.5)" fill="red"/>
    <rect id="Rectangle_1" data-name="Rectangle 1" width="22" height="109" rx="11" transform="translate(638 788)" fill="#1d1d1f"/>
    <rect id="Rectangle_2" data-name="Rectangle 2" width="22" height="78" rx="11" transform="translate(688 788) rotate(90)" fill="#1d1d1f"/>
    <g id="Rectangle_3" data-name="Rectangle 3" transform="translate(688 788)" fill="none" stroke="#1d1d1f" stroke-width="22">
      <rect width="109" height="109" rx="54.5" stroke="none"/>
      <rect x="11" y="11" width="87" height="87" rx="43.5" fill="none"/>
    </g>
    <rect id="Rectangle_4" data-name="Rectangle 4" width="22" height="109" rx="11" transform="translate(808 788)" fill="#1d1d1f"/>
    <rect id="Rectangle_5" data-name="Rectangle 5" width="22" height="68" rx="11" transform="translate(876 788) rotate(90)" fill="#1d1d1f"/>
    <rect id="Rectangle_6" data-name="Rectangle 6" width="22" height="68" rx="11" transform="translate(876 832) rotate(90)" fill="#1d1d1f"/>
    <rect id="Rectangle_7" data-name="Rectangle 7" width="30" height="31" transform="translate(518 829)" fill="red"/>
  </g>
</svg>
