<svg xmlns="http://www.w3.org/2000/svg" width="349.771" height="349.741" viewBox="0 0 349.771 349.741">
  <g id="watermark" transform="translate(962.224 -284.233)">
    <path id="daisy" d="M306.2,134.783,241.16,147.42l54.924-37.047A40.228,40.228,0,1,0,239.391,53.68l-37.207,55.732,12.8-65.849a40.231,40.231,0,1,0-80.187,0l13.1,65.728L110.383,53.68a40.225,40.225,0,0,0-59.157-2.464h0a40.225,40.225,0,0,0,2.464,59.157l55.732,37.207-65.849-12.8A40.238,40.238,0,0,0,0,174.877H0A40.231,40.231,0,0,0,43.573,214.97l66.545-13.261L53.691,239.381a40.225,40.225,0,0,0-2.464,59.156h0a40.225,40.225,0,0,0,59.157-2.464L147.9,240.46l-13.1,65.728a40.231,40.231,0,1,0,80.187,0l-12.8-65.846,37.207,55.732a40.228,40.228,0,1,0,56.693-56.693l-55.613-37.514,65.728,13.1a40.238,40.238,0,0,0,43.573-40.093h0A40.231,40.231,0,0,0,306.2,134.783ZM174.887,211.311a36.438,36.438,0,1,0-.006,0Z" transform="translate(-962.224 284.229)" fill="#757575"/>
    <rect id="Rectangle_8" data-name="Rectangle 8" width="97.318" height="99.581" transform="translate(-842.275 416.62)" fill="#757575"/>
  </g>
</svg>
